Patient4_TMGait_0pt5_01_right_15_GRF.mot
version=1
nRows=52
nColumns=19
inDegrees=no
endheader
time	F1x	F1y	F1z	M1x	M1y	M1z	F2x	F2y	F2z	M2x	M2y	M2z	EC1x	EC1y	EC1z	EC2x	EC2y	EC2z
19.41	-12.0637	731.0539	52.9699	-268.9365	-43.7344	608.5408	10.6844	6.1952	-10.5113	5.6511	3.0907	7.9633	-0.0592	0.0182	-0.0073	-0.0462	0.0165	0.9585
19.4234	-9.0467	731.0114	53.3651	-268.8595	-43.2283	607.0035	7.1133	4.6559	-7.3587	4.0441	2.346	5.8623	-0.0592	0.0182	-0.0073	-0.0462	0.0165	0.9585
19.4369	-6.1194	730.985	53.6487	-268.8178	-42.5088	604.7935	4.0827	3.3624	-4.5759	2.6612	1.6301	4.084	-0.0592	0.0182	-0.0073	-0.0462	0.0165	0.9585
19.4503	-3.4696	731.1688	53.8313	-268.8814	-41.6524	602.1207	1.7663	2.3958	-2.3917	1.6012	1.0392	2.7382	-0.0592	0.0182	-0.0073	-0.0462	0.0165	0.9585
19.4637	-1.1391	731.7281	53.9553	-269.1128	-40.7368	599.2087	0.1563	1.7499	-0.84168	0.87054	0.60824	1.8177	-0.0592	0.0182	-0.0073	-0.0462	0.0165	0.9585
19.4771	0.95458	732.7459	54.0516	-269.5483	-39.7948	596.1989	-0.85495	1.3779	0.13704	0.42626	0.34155	1.2658	-0.0592	0.0182	-0.0073	-0.0462	0.0165	0.9585
19.4906	2.9505	734.2161	54.1542	-270.1913	-38.8376	593.1489	-1.4166	1.2127	0.65895	0.2024	0.21596	1.0015	-0.0592	0.0182	-0.0073	-0.0462	0.0165	0.9585
19.504	5.0121	736.0734	54.281	-271.0208	-37.8479	590.0438	-1.6685	1.1591	0.8495	0.12025	0.19794	0.90655	-0.0592	0.0182	-0.0073	-0.0462	0.0165	0.9585
19.5174	7.2794	738.2284	54.4363	-272.0025	-36.7969	586.842	-1.7387	1.1193	0.82003	0.10383	0.25868	0.87159	-0.0592	0.0182	-0.0073	-0.0462	0.0165	0.9585
19.5309	9.8648	740.6121	54.6071	-273.1062	-35.6434	583.5222	-1.7152	0.98913	0.66576	0.083358	0.36786	0.77593	-0.0592	0.0182	-0.0073	-0.0462	0.0165	0.9585
19.5443	12.8443	743.1927	54.7869	-274.3111	-34.3568	580.1065	-1.6605	0.66561	0.45848	-0.0035031	0.50134	0.5116	-0.0592	0.0182	-0.0073	-0.0462	0.0165	0.9585
19.5577	16.2379	745.9451	54.9796	-275.5916	-32.9298	576.6473	-1.6036	0.046636	0.25341	-0.21098	0.63069	-0.030516	-0.0592	0.0182	-0.0073	-0.0462	0.0165	0.9585
19.5711	20.0118	748.8189	55.2019	-276.9039	-31.3825	573.2104	-1.5445	-0.94995	0.0805	-0.58013	0.73189	-0.94418	-0.0592	0.0182	-0.0073	-0.0462	0.0165	0.9585
19.5846	24.0631	751.7456	55.4723	-278.1877	-29.76	569.8739	-1.4676	-2.356	-0.032389	-1.1269	0.76953	-2.27	-0.0592	0.0182	-0.0073	-0.0462	0.0165	0.9585
19.598	28.239	754.6335	55.8117	-279.3704	-28.1299	566.709	-1.3204	-4.1442	-0.066719	-1.8372	0.70753	-3.9922	-0.0592	0.0182	-0.0073	-0.0462	0.0165	0.9585
19.6114	32.3542	757.3707	56.2377	-280.3737	-26.5723	563.7679	-1.0295	-6.1585	0.0079585	-2.6447	0.49079	-5.9593	-0.0592	0.0182	-0.0073	-0.0462	0.0165	0.9585
19.6249	36.225	759.8123	56.7575	-281.1125	-25.1659	561.0491	-0.50115	-8.0507	0.21872	-3.4042	0.060256	-7.8371	-0.0592	0.0182	-0.0073	-0.0462	0.0165	0.9585
19.6383	39.7155	761.741	57.3549	-281.4836	-23.9538	558.4482	0.35753	-9.2026	0.59894	-3.8604	-0.65176	-9.0371	-0.0592	0.0182	-0.0073	-0.0462	0.0165	0.9585
19.6517	42.7718	762.8392	58.0151	-281.3579	-22.9545	555.7394	1.6212	-8.6595	1.1734	-3.6231	-1.7021	-8.6428	-0.0592	0.0182	-0.0073	-0.0462	0.0165	0.9585
19.6651	45.4634	762.694	58.7101	-280.5887	-22.1275	552.5611	3.3327	-5.0995	1.9542	-2.1531	-3.1197	-5.3841	-0.0592	0.0182	-0.0073	-0.0462	0.0165	0.9585
19.6786	47.979	760.8234	59.4178	-279.0207	-21.3952	548.4548	5.4348	3.1493	2.9081	1.2287	-4.8469	2.3676	-0.0592	0.0182	-0.0073	-0.0462	0.0165	0.9585
19.692	50.5649	756.6835	60.0672	-276.4959	-20.6235	542.901	7.6873	17.9939	3.9341	7.2949	-6.6809	16.476	-0.0592	0.0182	-0.0073	-0.0462	0.0165	0.9585
19.7054	53.4457	749.6501	60.5489	-272.8459	-19.6625	535.3498	9.4607	41.3806	4.8583	16.8261	-8.1886	38.8668	-0.0592	0.0182	-0.0073	-0.0462	0.0165	0.9585
19.7189	56.7284	738.9616	60.6766	-267.8665	-18.3482	525.2087	9.6098	74.8145	5.4253	30.4166	-8.6525	71.0712	-0.0592	0.0182	-0.0073	-0.0462	0.0165	0.9585
19.7323	60.3201	723.6498	60.22	-261.2811	-16.5628	511.8067	6.7591	118.6949	5.3311	48.2073	-7.2279	113.5976	-0.0592	0.0182	-0.0073	-0.0462	0.0165	0.9585
19.7457	63.9361	702.5559	58.9099	-252.7421	-14.2332	494.4031	0.23879	171.7642	4.3185	69.6619	-3.4041	165.3511	-0.0592	0.0182	-0.0073	-0.0462	0.0165	0.9585
19.7591	67.1367	674.5115	56.5326	-241.8856	-11.3816	472.3086	-9.2263	230.4343	2.2162	93.2988	2.6827	222.8923	-0.0592	0.0182	-0.0073	-0.0462	0.0165	0.9585
19.7726	69.4094	638.6204	52.9995	-228.4248	-8.142	445.0429	-19.9773	288.6821	-0.96444	116.6806	10.3115	280.257	-0.0592	0.0182	-0.0073	-0.0462	0.0165	0.9585
19.786	70.2445	594.607	48.4023	-212.2664	-4.7684	412.5418	-30.1983	340.7166	-4.873	137.4766	18.3601	331.6158	-0.0592	0.0182	-0.0073	-0.0462	0.0165	0.9585
19.7994	69.2296	543.0496	43.0218	-193.591	-1.5994	375.2952	-38.7322	383.6556	-8.9858	154.5342	25.8191	374.0049	-0.0592	0.0182	-0.0073	-0.0462	0.0165	0.9585
19.8129	66.1558	485.2895	37.2499	-172.8338	1.0309	334.269	-45.0923	417.9089	-12.8836	168.029	32.0824	407.7085	-0.0592	0.0182	-0.0073	-0.0462	0.0165	0.9585
19.8263	61.0119	423.2496	31.4511	-150.6327	2.8822	290.7856	-49.3679	446.2367	-16.3233	179.075	36.9639	435.3041	-0.0592	0.0182	-0.0073	-0.0462	0.0165	0.9585
19.8397	53.9604	359.2752	25.8948	-127.7862	3.8442	246.4086	-52.0072	472.4769	-19.4104	189.2016	40.7618	460.4127	-0.0592	0.0182	-0.0073	-0.0462	0.0165	0.9585
19.8531	45.3326	295.9635	20.7709	-105.1976	3.9193	202.8439	-53.572	500.4131	-22.4834	199.8958	44.0456	486.5979	-0.0592	0.0182	-0.0073	-0.0462	0.0165	0.9585
19.8666	35.6765	235.9104	16.206	-83.7858	3.2306	161.7682	-54.6174	532.7393	-26.0188	212.189	47.5048	516.4124	-0.0592	0.0182	-0.0073	-0.0462	0.0165	0.9585
19.88	25.7378	181.387	12.3065	-64.3595	1.9876	124.6081	-55.6155	570.281	-30.3808	226.3705	51.6821	550.6594	-0.0592	0.0182	-0.0073	-0.0462	0.0165	0.9585
19.8934	16.3404	134.0364	9.142	-47.5003	0.45661	92.3725	-56.9124	612.003	-35.682	242.003	56.8262	588.4373	-0.0592	0.0182	-0.0073	-0.0462	0.0165	0.9585
19.9069	8.2127	94.648	6.7226	-33.4827	-1.0889	65.5224	-58.661	655.5704	-41.7315	258.1548	62.8225	627.6428	-0.0592	0.0182	-0.0073	-0.0462	0.0165	0.9585
19.9203	1.8408	63.1907	4.9569	-22.2912	-2.396	44.008	-60.7936	698.0555	-48.1266	273.6862	69.2753	665.6115	-0.0592	0.0182	-0.0073	-0.0462	0.0165	0.9585
19.9337	-2.562	39.0661	3.662	-13.7146	-3.2585	27.4309	-63.0828	736.5071	-54.3658	287.4742	75.6353	699.6522	-0.0592	0.0182	-0.0073	-0.0462	0.0165	0.9585
19.9471	-5.0299	21.4016	2.6512	-7.4444	-3.566	15.2262	-65.2084	768.3425	-59.9388	298.5651	81.306	727.3878	-0.0592	0.0182	-0.0073	-0.0462	0.0165	0.9585
19.9606	-5.7938	9.1829	1.7994	-3.1211	-3.3303	6.7268	-66.8516	791.635	-64.4497	306.2736	85.8009	747.036	-0.0592	0.0182	-0.0073	-0.0462	0.0165	0.9585
19.974	-5.3519	1.4143	1.0794	-0.38835	-2.7218	1.2658	-67.7502	805.3433	-67.6399	310.2661	88.7843	757.6176	-0.0592	0.0182	-0.0073	-0.0462	0.0165	0.9585
19.9874	-4.3248	-2.8838	0.53795	1.1073	-2.0051	-1.7921	-67.7342	809.4638	-69.4209	310.6096	90.1136	759.1071	-0.0592	0.0182	-0.0073	-0.0462	0.0165	0.9585
20.0009	-3.1199	-4.7294	0.17036	1.729	-1.3316	-3.137	-66.7422	805.0669	-69.8303	307.7786	89.8108	752.4663	-0.0592	0.0182	-0.0073	-0.0462	0.0165	0.9585
20.0143	-1.9909	-5.0028	-0.05294	1.7938	-0.77591	-3.3714	-64.8149	794.1296	-69.0232	302.587	88.0483	739.4911	-0.0592	0.0182	-0.0073	-0.0462	0.0165	0.9585
20.0277	-1.0669	-4.3893	-0.17081	1.5484	-0.35787	-2.9775	-62.0877	779.1955	-67.2299	296.0511	85.1024	722.4975	-0.0592	0.0182	-0.0073	-0.0462	0.0165	0.9585
20.0411	-0.38761	-3.3941	-0.20931	1.1723	-0.077723	-2.309	-58.7561	762.9639	-64.726	289.2262	81.311	703.9446	-0.0592	0.0182	-0.0073	-0.0462	0.0165	0.9585
20.0546	0.051973	-2.3221	-0.20932	0.77724	0.096535	-1.5691	-55.039	747.8948	-61.7874	283.0558	77.0148	686.0716	-0.0592	0.0182	-0.0073	-0.0462	0.0165	0.9585
20.068	0.30932	-1.3429	-0.1843	0.42524	0.18967	-0.88292	-51.1464	735.8693	-58.6576	278.2448	72.5148	670.5954	-0.0592	0.0182	-0.0073	-0.0462	0.0165	0.9585
20.0814	0.42575	-0.52081	-0.16005	0.13906	0.23679	-0.29463	-47.2394	728.0266	-55.5418	275.201	68.0534	658.5577	-0.0592	0.0182	-0.0073	-0.0462	0.0165	0.9585
20.0949	0.44665	0.12232	-0.13464	-0.074347	0.24824	0.17297	-43.4152	724.7545	-52.6278	274.036	63.8268	650.3153	-0.0592	0.0182	-0.0073	-0.0462	0.0165	0.9585
